# xmcd
#
# Track frame offsets: 
#        150
#        21681
#        45758
#        70350
#        91926
#        115057
#        136112
#        158031
#        177698
#        198308
#        222790
#        242340
#        260986
#
# Disc length: 3713 seconds
#
# Revision: 0
# Processed by: cddbd v1.5.2PL0 Copyright (c) Steve Scherf et al.
# Submitted via: ExactAudioCopyFreeDBPlugin 1.0
#
DISCID=b50e7f0d
DTITLE=Zahara - Country Girl
DYEAR=2015
DGENRE=African Pop
TTITLE0=Ntombenhle
TTITLE1=Bomibami
TTITLE2=Imali
TTITLE3=Inameva
TTITLE4=Bengirongo (Feat. Robbie Malinga)
TTITLE5=Izintaba
TTITLE6=Amapleya
TTITLE7=Okutsha
TTITLE8=Walks Of Life
TTITLE9=Country Girl
TTITLE10=Udali
TTITLE11=Who I Am
TTITLE12=Stop The The Music
EXTD=
EXTT0=
EXTT1=
EXTT2=
EXTT3=
EXTT4=
EXTT5=
EXTT6=
EXTT7=
EXTT8=
EXTT9=
EXTT10=
EXTT11=
EXTT12=
PLAYORDER=
